<?xml version="1.0" standalone="no"?>
<!DOCTYPE svg PUBLIC "-//W3C//DTD SVG 20010904//EN"
 "http://www.w3.org/TR/2001/REC-SVG-20010904/DTD/svg10.dtd">
<svg version="1.0" xmlns="http://www.w3.org/2000/svg"
 width="240.000000pt" height="240.000000pt" viewBox="0 0 240.000000 240.000000"
 preserveAspectRatio="xMidYMid meet">
<metadata>
Created by potrace 1.14, written by Peter Selinger 2001-2017
</metadata>
<g transform="translate(0.000000,240.000000) scale(0.100000,-0.100000)"
fill="#000000" stroke="none">
<path d="M790 2365 c-111 -36 -199 -146 -219 -275 -6 -36 -11 -209 -11 -384 0
-300 -1 -322 -20 -361 -19 -39 -50 -63 -102 -79 -14 -4 -18 -17 -18 -60 0 -50
2 -54 28 -61 41 -10 70 -32 89 -68 16 -28 19 -74 24 -402 5 -353 6 -373 28
-427 29 -75 98 -150 169 -185 l57 -28 295 3 c225 2 310 6 360 18 75 18 192 73
235 110 17 14 23 22 15 18 -10 -5 -9 0 4 14 21 25 36 31 16 7 -7 -8 -8 -15 -3
-15 18 0 114 110 107 122 -4 6 -3 8 4 4 25 -15 114 161 138 274 41 194 -23
456 -142 581 -13 14 -24 29 -24 34 0 4 18 31 39 59 98 127 146 285 138 451
-11 212 -106 394 -271 519 -80 61 -123 84 -216 117 -61 21 -82 23 -370 26
-246 2 -314 0 -350 -12z m230 -275 c0 -113 3 -150 13 -150 6 0 84 -1 172 -3
177 -4 210 -13 274 -78 53 -53 65 -86 66 -175 0 -72 -3 -85 -30 -129 -35 -57
-91 -99 -152 -114 -23 -6 -110 -11 -193 -11 l-150 0 2 -222 3 -223 180 -5
c203 -6 214 -9 282 -83 122 -132 60 -351 -114 -403 -31 -9 -97 -14 -199 -14
l-153 0 -3 -152 -3 -153 -57 -3 c-77 -4 -127 11 -167 50 -64 63 -64 64 -70
483 -7 420 -6 414 -74 476 l-31 28 28 22 c16 12 39 45 52 73 24 50 24 55 24
388 0 202 4 357 11 387 23 110 92 161 216 161 l73 0 0 -150z m800 -1813 c0 -2
-15 -16 -32 -33 l-33 -29 29 33 c28 30 36 37 36 29z m-125 -106 c-17 -28 -215
-112 -262 -110 -10 0 16 10 57 22 41 13 104 39 140 59 77 42 73 40 65 29z
m-297 -118 c-10 -2 -26 -2 -35 0 -10 3 -2 5 17 5 19 0 27 -2 18 -5z"/>
</g>
</svg>
